{"asset":{"version":"2.0","generator":"Blockbench 4.10.3 glTF exporter"},"scenes":[{"nodes":[6],"name":"blockbench_export"}],"scene":0,"nodes":[{"translation":[0,0.0625,0],"name":"cuboid","mesh":0},{"translation":[0,0.0625,0],"name":"plane","mesh":1},{"translation":[0,0.0625,0],"name":"plane","mesh":2},{"rotation":[0,0.7071067811865475,0,0.7071067811865476],"translation":[0,0.0625,0],"name":"plane","mesh":3},{"name":"cuboid","mesh":4},{"name":"cylinder","mesh":5},{"children":[0,1,2,3,4,5]}],"bufferViews":[{"buffer":0,"byteOffset":0,"byteLength":864,"target":34962,"byteStride":12},{"buffer":0,"byteOffset":864,"byteLength":864,"target":34962,"byteStride":12},{"buffer":0,"byteOffset":1728,"byteLength":576,"target":34962,"byteStride":8},{"buffer":0,"byteOffset":2304,"byteLength":216,"target":34963},{"buffer":0,"byteOffset":2520,"byteLength":48,"target":34962,"byteStride":12},{"buffer":0,"byteOffset":2568,"byteLength":48,"target":34962,"byteStride":12},{"buffer":0,"byteOffset":2616,"byteLength":32,"target":34962,"byteStride":8},{"buffer":0,"byteOffset":2648,"byteLength":12,"target":34963},{"buffer":0,"byteOffset":2660,"byteLength":48,"target":34962,"byteStride":12},{"buffer":0,"byteOffset":2708,"byteLength":48,"target":34962,"byteStride":12},{"buffer":0,"byteOffset":2756,"byteLength":32,"target":34962,"byteStride":8},{"buffer":0,"byteOffset":2788,"byteLength":12,"target":34963},{"buffer":0,"byteOffset":2800,"byteLength":48,"target":34962,"byteStride":12},{"buffer":0,"byteOffset":2848,"byteLength":48,"target":34962,"byteStride":12},{"buffer":0,"byteOffset":2896,"byteLength":32,"target":34962,"byteStride":8},{"buffer":0,"byteOffset":2928,"byteLength":12,"target":34963},{"buffer":0,"byteOffset":2940,"byteLength":288,"target":34962,"byteStride":12},{"buffer":0,"byteOffset":3228,"byteLength":288,"target":34962,"byteStride":12},{"buffer":0,"byteOffset":3516,"byteLength":192,"target":34962,"byteStride":8},{"buffer":0,"byteOffset":3708,"byteLength":72,"target":34963},{"buffer":0,"byteOffset":3780,"byteLength":720,"target":34962,"byteStride":12},{"buffer":0,"byteOffset":4500,"byteLength":720,"target":34962,"byteStride":12},{"buffer":0,"byteOffset":5220,"byteLength":480,"target":34962,"byteStride":8},{"buffer":0,"byteOffset":5700,"byteLength":144,"target":34963}],"buffers":[{"byteLength":5844,"uri":"data:application/octet-stream;base64,"}],"accessors":[{"bufferView":0,"componentType":5126,"count":72,"max":[0.125,0.5625,0.125],"min":[-0.125,-0.0625,-0.125],"type":"VEC3"},{"bufferView":1,"componentType":5126,"count":72,"max":[1,1,1],"min":[-1,-1,-1],"type":"VEC3"},{"bufferView":2,"componentType":5126,"count":72,"max":[0.5625,0.6274093389511108],"min":[0,0],"type":"VEC2"},{"bufferView":3,"componentType":5123,"count":108,"max":[71],"min":[0],"type":"SCALAR"},{"bufferView":4,"componentType":5126,"count":4,"max":[0.0625,0.6000000238418579,0.0625],"min":[0.0625,0.4749999940395355,-0.0625],"type":"VEC3"},{"bufferView":5,"componentType":5126,"count":4,"max":[-1,2.220446049250313e-16,0],"min":[-1,2.220446049250313e-16,0],"type":"VEC3"},{"bufferView":6,"componentType":5126,"count":4,"max":[0.53125,0.0625],"min":[0.46875,0],"type":"VEC2"},{"bufferView":7,"componentType":5123,"count":6,"max":[3],"min":[0],"type":"SCALAR"},{"bufferView":8,"componentType":5126,"count":4,"max":[-0.0625,0.6000000238418579,0.0625],"min":[-0.0625,0.4749999940395355,-0.0625],"type":"VEC3"},{"bufferView":9,"componentType":5126,"count":4,"max":[-1,2.220446049250313e-16,0],"min":[-1,2.220446049250313e-16,0],"type":"VEC3"},{"bufferView":10,"componentType":5126,"count":4,"max":[0.53125,0.15625],"min":[0.46875,0.09375],"type":"VEC2"},{"bufferView":11,"componentType":5123,"count":6,"max":[3],"min":[0],"type":"SCALAR"},{"bufferView":12,"componentType":5126,"count":4,"max":[-0.0625,0.6000000238418579,0.0625],"min":[-0.0625,0.4749999940395355,-0.0625],"type":"VEC3"},{"bufferView":13,"componentType":5126,"count":4,"max":[-1,2.220446049250313e-16,0],"min":[-1,2.220446049250313e-16,0],"type":"VEC3"},{"bufferView":14,"componentType":5126,"count":4,"max":[0.53125,0.25],"min":[0.46875,0.1875],"type":"VEC2"},{"bufferView":15,"componentType":5123,"count":6,"max":[3],"min":[0],"type":"SCALAR"},{"bufferView":16,"componentType":5126,"count":24,"max":[0.012500000186264515,0.6875,0.012500000186264515],"min":[-0.012500000186264515,0.625,-0.012500000186264515],"type":"VEC3"},{"bufferView":17,"componentType":5126,"count":24,"max":[1,1,1],"min":[-1,-1,-1],"type":"VEC3"},{"bufferView":18,"componentType":5126,"count":24,"max":[0.59375,0.59375],"min":[0.15625,0],"type":"VEC2"},{"bufferView":19,"componentType":5123,"count":36,"max":[23],"min":[0],"type":"SCALAR"},{"bufferView":20,"componentType":5126,"count":60,"max":[0.03466878458857536,0.699999988079071,0.03125],"min":[-0.03466878458857536,0.6875,-0.03125],"type":"VEC3"},{"bufferView":21,"componentType":5126,"count":60,"max":[0.8744745254516602,1,1],"min":[-0.8744745254516602,-1,-1],"type":"VEC3"},{"bufferView":22,"componentType":5126,"count":60,"max":[0.625,0.59375],"min":[0.21875,0.1875],"type":"VEC2"},{"bufferView":23,"componentType":5123,"count":72,"max":[59],"min":[0],"type":"SCALAR"}],"materials":[{"pbrMetallicRoughness":{"metallicFactor":0,"roughnessFactor":1,"baseColorTexture":{"index":0}},"alphaMode":"MASK","alphaCutoff":0.05,"doubleSided":true}],"textures":[{"sampler":0,"source":0,"name":"RustyGasCan.png"}],"samplers":[{"magFilter":9728,"minFilter":9728,"wrapS":33071,"wrapT":33071}],"images":[{"mimeType":"image/png","uri":"data:image/png;base64,"}],"meshes":[{"primitives":[{"mode":4,"attributes":{"POSITION":0,"NORMAL":1,"TEXCOORD_0":2},"indices":3,"material":0}]},{"primitives":[{"mode":4,"attributes":{"POSITION":4,"NORMAL":5,"TEXCOORD_0":6},"indices":7,"material":0}]},{"primitives":[{"mode":4,"attributes":{"POSITION":8,"NORMAL":9,"TEXCOORD_0":10},"indices":11,"material":0}]},{"primitives":[{"mode":4,"attributes":{"POSITION":12,"NORMAL":13,"TEXCOORD_0":14},"indices":15,"material":0}]},{"primitives":[{"mode":4,"attributes":{"POSITION":16,"NORMAL":17,"TEXCOORD_0":18},"indices":19,"material":0}]},{"primitives":[{"mode":4,"attributes":{"POSITION":20,"NORMAL":21,"TEXCOORD_0":22},"indices":23,"material":0}]}]}