{"asset":{"version":"2.0","generator":"Blockbench 4.10.3 glTF exporter"},"scenes":[{"nodes":[2],"name":"blockbench_export"}],"scene":0,"nodes":[{"translation":[-1.734723475976807e-18,-0.005624999999999998,0.18625000000000003],"name":"Handle"},{"name":"bone","children":[0]},{"translation":[0,0.043125000000000004,-0.27375000000000005],"name":"bone","mesh":0,"children":[1],"skin":0}],"bufferViews":[{"buffer":0,"byteOffset":0,"byteLength":1632,"target":34962,"byteStride":12},{"buffer":0,"byteOffset":1632,"byteLength":1632,"target":34962,"byteStride":12},{"buffer":0,"byteOffset":3264,"byteLength":1088,"target":34962,"byteStride":8},{"buffer":0,"byteOffset":4352,"byteLength":1088,"target":34962,"byteStride":8},{"buffer":0,"byteOffset":5440,"byteLength":2176,"target":34962,"byteStride":16},{"buffer":0,"byteOffset":7616,"byteLength":408,"target":34963},{"buffer":0,"byteOffset":8024,"byteLength":128},{"buffer":0,"byteOffset":8152,"byteLength":24},{"buffer":0,"byteOffset":8176,"byteLength":96},{"buffer":0,"byteOffset":8272,"byteLength":12},{"buffer":0,"byteOffset":8284,"byteLength":36},{"buffer":0,"byteOffset":8320,"byteLength":12},{"buffer":0,"byteOffset":8332,"byteLength":36},{"buffer":0,"byteOffset":8368,"byteLength":12},{"buffer":0,"byteOffset":8380,"byteLength":36},{"buffer":0,"byteOffset":8416,"byteLength":24},{"buffer":0,"byteOffset":8440,"byteLength":72},{"buffer":0,"byteOffset":8512,"byteLength":24},{"buffer":0,"byteOffset":8536,"byteLength":96},{"buffer":0,"byteOffset":8632,"byteLength":12},{"buffer":0,"byteOffset":8644,"byteLength":36},{"buffer":0,"byteOffset":8680,"byteLength":12},{"buffer":0,"byteOffset":8692,"byteLength":36}],"buffers":[{"byteLength":8728,"uri":"data:application/octet-stream;base64,"}],"accessors":[{"bufferView":0,"componentType":5126,"count":136,"max":[0.046875,0.05062500014901161,0.3987500071525574],"min":[-0.046875,-0.07437500357627869,-0.20749998092651367],"type":"VEC3"},{"bufferView":1,"componentType":5126,"count":136,"max":[1,1,1],"min":[-1,-1,-1],"type":"VEC3"},{"bufferView":2,"componentType":5126,"count":136,"max":[0.9375,0.9893500208854675],"min":[0,0],"type":"VEC2"},{"bufferView":3,"componentType":5123,"count":136,"max":[0,1,0,0],"min":[0,0,0,0],"type":"VEC4"},{"bufferView":4,"componentType":5126,"count":136,"max":[0,1,0,0],"min":[0,1,0,0],"type":"VEC4"},{"bufferView":5,"componentType":5123,"count":204,"max":[135],"min":[0],"type":"SCALAR"},{"bufferView":6,"componentType":5126,"count":2,"max":[1,0,0,0,0,1,0,0,0,0,1,0,1.734723475976807e-18,0.005625000223517418,0,1],"min":[1,0,0,0,0,1,0,0,0,0,1,0,0,0,-0.1862500011920929,1],"type":"MAT4"},{"bufferView":7,"componentType":5126,"count":6,"max":[0.3333333432674408],"min":[0],"type":"SCALAR"},{"bufferView":8,"componentType":5126,"count":6,"max":[0,0,0.0040135569870471954,1],"min":[-0.14693453907966614,-0.07793816179037094,-0.001762932282872498,0.98606938123703],"type":"VEC4"},{"bufferView":9,"componentType":5126,"count":3,"max":[0.3333333432674408],"min":[0],"type":"SCALAR"},{"bufferView":10,"componentType":5126,"count":3,"max":[0,0.04312499985098839,-0.2737500071525574],"min":[0,0.04312499985098839,-0.2737500071525574],"type":"VEC3"},{"bufferView":11,"componentType":5126,"count":3,"max":[0.3333333432674408],"min":[0],"type":"SCALAR"},{"bufferView":12,"componentType":5126,"count":3,"max":[1,1,1],"min":[1,1,1],"type":"VEC3"},{"bufferView":13,"componentType":5126,"count":3,"max":[0.25],"min":[0],"type":"SCALAR"},{"bufferView":14,"componentType":5126,"count":3,"max":[0,0.04312499985098839,-0.2737500071525574],"min":[0,0.04312499985098839,-0.2737500071525574],"type":"VEC3"},{"bufferView":15,"componentType":5126,"count":6,"max":[0.25],"min":[0],"type":"SCALAR"},{"bufferView":16,"componentType":5126,"count":6,"max":[-1.734723475976807e-18,-0.005625000223517418,0.1862500011920929],"min":[-1.734723475976807e-18,-0.005625000223517418,0.12238657474517822],"type":"VEC3"},{"bufferView":17,"componentType":5126,"count":6,"max":[0.3333333432674408],"min":[0],"type":"SCALAR"},{"bufferView":18,"componentType":5126,"count":6,"max":[0,0,0.0040135569870471954,1],"min":[-0.14693453907966614,-0.07793816179037094,-0.001762932282872498,0.98606938123703],"type":"VEC4"},{"bufferView":19,"componentType":5126,"count":3,"max":[0.3333333432674408],"min":[0],"type":"SCALAR"},{"bufferView":20,"componentType":5126,"count":3,"max":[0,0.04312499985098839,-0.2737500071525574],"min":[0,0.04312499985098839,-0.33000001311302185],"type":"VEC3"},{"bufferView":21,"componentType":5126,"count":3,"max":[0.3333333432674408],"min":[0],"type":"SCALAR"},{"bufferView":22,"componentType":5126,"count":3,"max":[1,1,1],"min":[1,1,1],"type":"VEC3"}],"materials":[{"pbrMetallicRoughness":{"metallicFactor":0,"roughnessFactor":1,"baseColorTexture":{"index":0}},"alphaMode":"MASK","alphaCutoff":0.05,"doubleSided":true}],"textures":[{"sampler":0,"source":0,"name":"texture"}],"samplers":[{"magFilter":9728,"minFilter":9728,"wrapS":33071,"wrapT":33071}],"images":[{"mimeType":"image/png","uri":"data:image/png;base64,"}],"meshes":[{"primitives":[{"mode":4,"attributes":{"POSITION":0,"NORMAL":1,"TEXCOORD_0":2,"JOINTS_0":3,"WEIGHTS_0":4},"indices":5,"material":0}]}],"skins":[{"inverseBindMatrices":6,"joints":[1,0],"skeleton":1}],"animations":[{"name":"Fire","samplers":[{"input":7,"output":8,"interpolation":"LINEAR"},{"input":9,"output":10,"interpolation":"LINEAR"},{"input":11,"output":12,"interpolation":"LINEAR"}],"channels":[{"sampler":0,"target":{"node":1,"path":"rotation"}},{"sampler":1,"target":{"node":1,"path":"translation"}},{"sampler":2,"target":{"node":1,"path":"scale"}}]},{"name":"animation","samplers":[{"input":13,"output":14,"interpolation":"LINEAR"},{"input":15,"output":16,"interpolation":"LINEAR"}],"channels":[{"sampler":0,"target":{"node":1,"path":"translation"}},{"sampler":1,"target":{"node":0,"path":"translation"}}]},{"name":"Fire2","samplers":[{"input":17,"output":18,"interpolation":"LINEAR"},{"input":19,"output":20,"interpolation":"LINEAR"},{"input":21,"output":22,"interpolation":"LINEAR"}],"channels":[{"sampler":0,"target":{"node":1,"path":"rotation"}},{"sampler":1,"target":{"node":1,"path":"translation"}},{"sampler":2,"target":{"node":1,"path":"scale"}}]}]}